<?xml version="1.0"?>
<svg xmlns="http://www.w3.org/2000/svg" xmlns:xlink="http://www.w3.org/1999/xlink" version="1.1" id="Layer_1" x="0px" y="0px" viewBox="0 0 511.999 511.999" style="enable-background:new 0 0 511.999 511.999;" xml:space="preserve" width="512px" height="512px"><g><g>
	<g>
		<path d="M87.132,339.143c-20.048-1.014-36.775,14.931-36.775,34.931c-0.001,12.019,6.11,23.011,16.085,29.428    c5.449,3.505,11.93,5.547,18.891,5.547c19.211,0,34.975-15.571,34.975-34.975C120.308,355.327,105.579,340.081,87.132,339.143z" data-original="#000000" class="active-path" data-old_color="#000000" fill="#FFFFFF"/>
	</g>
</g><g>
	<g>
		<path d="M332.131,154.456c-0.129-25.662-21.113-46.54-46.774-46.54H195.46l-37.374-13.788l33.506-42.404    c-1.229,23.551,17.518,43.135,40.907,43.135c22.624,0,40.964-18.341,40.964-40.964s-18.341-40.964-40.964-40.964    c-13.745,0-25.899,6.776-33.33,17.163c-0.982-4.205-3.328-8.122-6.979-11.006c-8.564-6.767-20.994-5.31-27.763,3.255    l-54.089,68.452c-8.28,10.478-3.974,26.002,8.506,30.732l57.249,21.7c0.827-6.052,5.224-11.267,11.362-12.934    c17.307-4.698,34.633-9.401,52.203-14.169c7.738-2.1,16.656,1.879,19.282,11.556l14.441,53.205l11.253,1.202v-27.411    c0-2.196,1.776-3.978,3.972-3.984c2.196-0.007,3.984,1.765,3.995,3.964c0.033,6.736,0.225,44.809,0.225,44.809l-50.236-5.366    c-10.867-1.161-20.594,6.701-21.753,17.554c-1.159,10.854,6.701,20.594,17.555,21.753l72.211,7.713    c5.569,0.595,11.159-1.202,15.349-4.986c4.174-3.771,6.544-9.141,6.516-14.767C332.416,211.095,332.167,161.578,332.131,154.456z" data-original="#000000" class="active-path" data-old_color="#000000" fill="#FFFFFF"/>
	</g>
</g><g>
	<g>
		<path d="M243.74,131.164l-52.203,14.169l15.103,55.646c5.667-15.057,20.949-24.992,37.695-23.197l12.418,1.327L243.74,131.164z" data-original="#000000" class="active-path" data-old_color="#000000" fill="#FFFFFF"/>
	</g>
</g><g>
	<g>
		<path d="M236.651,249.72c-7.594-0.811-14.382-3.922-19.758-8.559c-1.163,0.266-2.328,0.403-3.477,0.403    c-6.861,0-13.146-4.566-15.029-11.504l-18.448-67.969c0,0,0.009,244.187,0.009,250.515c8.874-5.748,19.433-9.104,30.751-9.104    h2.862c-5.813-8.358-9.234-18.499-9.234-29.428c0.001-17.917,9.17-33.727,23.059-43v-33.74h10.242v28.454    c5.712-2.18,11.902-3.387,18.371-3.387c10.771,0,20.563,3.317,28.851,8.977c0-27.775,0-35.265,0-36.985c0-0.326,0-0.447,0-0.457    c0-1.763,0-9.586,0-39.091L236.651,249.72z" data-original="#000000" class="active-path" data-old_color="#000000" fill="#FFFFFF"/>
	</g>
</g><g>
	<g>
		<path d="M255.999,339.097c-19.329,0-34.975,15.668-34.975,34.975c0,19.425,15.787,34.975,34.975,34.975    c19.321,0,34.975-15.701,34.975-34.975C290.974,354.632,275.188,339.097,255.999,339.097z" data-original="#000000" class="active-path" data-old_color="#000000" fill="#FFFFFF"/>
	</g>
</g><g>
	<g>
		<path d="M426.665,339.098c-19.238,0-34.975,15.584-34.975,34.975c0,12.198,6.253,23.102,16.085,29.428    c5.449,3.505,11.93,5.547,18.891,5.547s13.441-2.041,18.891-5.547c9.829-6.323,16.085-17.229,16.085-29.428    C461.64,354.792,446.024,339.098,426.665,339.098z" data-original="#000000" class="active-path" data-old_color="#000000" fill="#FFFFFF"/>
	</g>
</g><g>
	<g>
		<path d="M471.965,420.197c-9.414,0-81.182,0-90.598,0c-21.957,0-39.92,17.879-40.034,39.735    c-0.11-21.88-18.129-39.735-40.034-39.735c-9.414,0-81.182,0-90.598,0c-21.911,0-39.924,17.825-40.034,39.736    c-0.11-21.83-18.056-39.736-40.034-39.736c-9.414,0-81.182,0-90.598,0C18.151,420.197,0.11,438.01,0,459.932v39.136h33.654    l0.195-38.771c0.027-4.895,6.791-4.509,6.791-0.179v38.95h89.388v-38.949c0-4.313,6.764-4.683,6.79-0.018l0.196,38.966    c13.481,0,53.827,0,67.308,0l0.196-38.966c0.027-4.517,6.79-4.39,6.79,0.017v38.95h89.387v-38.949c0-4.345,6.766-4.624,6.79-0.018    c0.154,30.571,0.126,25.117,0.196,38.966c31.692,0,36.85,0,67.308,0c0.096-18.945,0.101-20.093,0.196-38.966    c0.026-4.621,6.79-4.326,6.79,0.017v38.95h89.387v-38.949c0-4.373,6.764-4.579,6.79-0.018c0.075,14.747,0.122,24.413,0.196,38.966    h33.653v-39.136C511.889,438.022,493.876,420.197,471.965,420.197z" data-original="#000000" class="active-path" data-old_color="#000000" fill="#FFFFFF"/>
	</g>
</g></g> </svg>
