<?xml version="1.0"?>
<svg xmlns="http://www.w3.org/2000/svg" height="512px" viewBox="0 0 64 64" width="512px"><g><path d="m56 6h-4v-3a1 1 0 0 0 -1-1h-4a1 1 0 0 0 -1 1v3h-24v-3a1 1 0 0 0 -1-1h-4a1 1 0 0 0 -1 1v3h-4a1 1 0 0 0 -1 1v45h-3a1 1 0 0 0 -1 1v4a5.006 5.006 0 0 0 5 5h40a5.006 5.006 0 0 0 5-5v-50a1 1 0 0 0 -1-1zm-8-2h2v6h-2zm-30 0h2v6h-2zm-6 56a3 3 0 0 1 -3-3v-3h38v3a4.948 4.948 0 0 0 1.026 3zm43-3a3 3 0 0 1 -6 0v-4a1 1 0 0 0 -1-1h-35v-44h3v3a1 1 0 0 0 1 1h4a1 1 0 0 0 1-1v-3h24v3a1 1 0 0 0 1 1h4a1 1 0 0 0 1-1v-3h3z" data-original="#000000" class="active-path" data-old_color="#000000" fill="#FFFFFF"/><path d="m11 56h2v2h-2z" data-original="#000000" class="active-path" data-old_color="#000000" fill="#FFFFFF"/><path d="m15 56h2v2h-2z" data-original="#000000" class="active-path" data-old_color="#000000" fill="#FFFFFF"/><path d="m21 16a1 1 0 0 0 -1-1h-1a1.006 1.006 0 0 0 -.555.168l-3 2 1.11 1.664 2.445-1.632v3.8h-2v2h6v-2h-2z" data-original="#000000" class="active-path" data-old_color="#000000" fill="#FFFFFF"/><path d="m22 26h-5a1 1 0 0 0 -1 1v3h2v-2h3v1.434l-4.515 2.709a1 1 0 0 0 -.485.857v1a1 1 0 0 0 1 1h6v-2h-4.056l3.571-2.143a1 1 0 0 0 .485-.857v-3a1 1 0 0 0 -1-1z" data-original="#000000" class="active-path" data-old_color="#000000" fill="#FFFFFF"/><path d="m22 39h-6v2h5v2h-4v2h4v2h-5v2h6a1 1 0 0 0 1-1v-8a1 1 0 0 0 -1-1z" data-original="#000000" class="active-path" data-old_color="#000000" fill="#FFFFFF"/><path d="m26 23h26v-8h-26zm2-6h22v4h-22z" data-original="#000000" class="active-path" data-old_color="#000000" fill="#FFFFFF"/><path d="m26 40v8h26v-8zm16 6h-14v-4h14zm8 0h-6v-4h6z" data-original="#000000" class="active-path" data-old_color="#000000" fill="#FFFFFF"/><path d="m26 27v8h26v-8zm20 6h-18v-4h18zm4 0h-2v-4h2z" data-original="#000000" class="active-path" data-old_color="#000000" fill="#FFFFFF"/><path d="m24 10h2v2h-2z" data-original="#000000" class="active-path" data-old_color="#000000" fill="#FFFFFF"/><path d="m28 10h12v2h-12z" data-original="#000000" class="active-path" data-old_color="#000000" fill="#FFFFFF"/><path d="m42 10h2v2h-2z" data-original="#000000" class="active-path" data-old_color="#000000" fill="#FFFFFF"/></g> </svg>
